<?xml version="1.0" encoding="UTF-8"?>
<svg id="Layer_2" data-name="Layer 2" xmlns="http://www.w3.org/2000/svg" width="365.07" height="322.87" viewBox="0 0 365.07 322.87">
  <defs>
    <style>
      .cls-1 {
        stroke-width: 0px;
      }

      .cls-1, .cls-2 {
        fill: #fff;
      }

      .cls-2 {
        stroke: #fff;
        stroke-miterlimit: 10;
      }
    </style>
  </defs>
  <g id="Layer_1-2" data-name="Layer 1">
    <path class="cls-2" d="M50.83.74c.95,0,1.91,0,2.89-.01h6.52c3.73,0,7.46-.01,11.19-.01,2.67,0,5.35,0,8.02-.02,7.27-.01,14.53-.02,21.8-.02,4.54,0,9.08,0,13.62-.01,12.58-.01,25.16-.02,37.73-.03h12.24c13.13,0,26.26-.02,39.39-.04,13.49-.02,26.98-.04,40.47-.04,7.57,0,15.14,0,22.71-.02,6.45-.02,12.89-.02,19.34-.01,3.29,0,6.57,0,9.86-.01,3.57-.01,7.14,0,10.71,0,1.03,0,2.05-.02,3.11-.02,14.9.1,28.5,5.58,39.29,15.91,7.85,8.66,14.26,20.36,14.45,32.27.01.95.03,1.9.05,2.86.04,4.3.09,8.59.11,12.89.02,2.27.04,4.53.08,6.8.05,3.27.08,6.54.09,9.82.02,1.01.05,2.02.07,3.07-.01,4.69-1.01,8.33-2.98,10.91-3.83,2.75-6.95,3.3-11.61,2.88-4.5-2.21-5.74-3.47-8-8v-24H22.98c.1,33.78.21,67.57.31,102.38.02,10.66.05,21.33.08,32.31.03,6.38.05,12.76.08,19.13.02,4.26.03,8.52.03,12.77,0,5.44.03,10.87.06,16.31,0,1.99.01,3.98.01,5.98,0,13.37-.01,24.73,9.43,35.12,8.84,8.61,19.89,9.15,31.53,9.13h13.7c2.52,0,5.03,0,7.55.01,6.12,0,12.25.01,18.37.01h14.94c14.13,0,28.26.01,42.39.01h4.62c12.35,0,24.69,0,37.04.02,12.69.01,25.38.02,38.07.02,7.12,0,14.24,0,21.36.01,6.7.01,13.39,0,20.09,0h17.43c.97,0,1.93.01,2.93.02,11.11-.06,21.38-1.73,29.73-9.51,6.34-6.73,8.37-13.73,8.39-22.81,0-.7,0-1.41.01-2.13,0-1.52.01-3.05.02-4.57,0-2.41.02-4.83.04-7.24.05-6.86.1-13.72.12-20.58.01-4.2.04-8.4.08-12.6.01-1.6.02-3.19.02-4.79,0-2.24.02-4.47.05-6.71,0-1.27.01-2.54.02-3.85.61-4.11,1.92-6.26,4.51-9.47,3.7-2.47,6.7-2.68,11-2,3.67,2,6,4,7,6,.11,2.43.17,4.84.18,7.27,0,.75.01,1.5.02,2.27.02,2.49.03,4.98.04,7.47,0,.85,0,1.71.01,2.59.02,4.53.04,9.06.04,13.58.01,4.65.05,9.3.09,13.95.03,3.6.03,7.19.04,10.79,0,1.71.02,3.42.04,5.13.18,17.86-3.61,31.59-15.89,45.13-4.15,3.97-8.48,6.73-13.56,9.31-.64.33-1.28.65-1.94.99-8.76,4.15-17.76,4.81-27.33,4.78-1.09,0-2.2,0-3.31.01-3.64.01-7.27.01-10.91,0-2.62,0-5.23.01-7.85.02-6.36.02-12.71.02-19.07.02-5.17,0-10.34,0-15.51.01-14.69.02-29.38.03-44.07.03h-4.8c-12.82,0-25.64.02-38.45.05-13.19.03-26.38.04-39.57.04-7.39,0-14.79,0-22.18.03-6.96.02-13.92.02-20.88,0-2.54,0-5.09,0-7.63.01-20.75.09-39.43-.79-55.38-15.82-10.52-11.24-15.28-24.75-15.27-39.93,0-.93,0-1.87-.01-2.83-.01-3.13-.01-6.27-.02-9.4,0-2.25-.01-4.49-.02-6.74-.02-7.38-.03-14.75-.04-22.13,0-2.54,0-5.08-.01-7.63-.02-10.58-.03-21.15-.04-31.73v-10.3c0-11.03-.03-22.06-.07-33.09-.03-11.34-.05-22.68-.05-34.02,0-6.36-.01-12.72-.04-19.08-.02-5.99-.03-11.98-.02-17.97,0-2.19,0-4.38-.02-6.57-.07-11.44,0-21.57,4.49-32.28.32-.77.64-1.55.97-2.34C11.53,17.87,22.25,8.84,34.93,3.84c5.33-1.9,10.24-3.12,15.91-3.13v.03ZM33.54,31.12c-.78.71-1.56,1.41-2.37,2.14-1.93,2.16-4,5.7-6.19,10.61h315c-4.22-9.85-8.43-14.4-18-19-6.01-2.14-11.49-2.29-17.83-2.27-1.08,0-2.16,0-3.27-.01-3.61-.01-7.23-.01-10.84,0-2.59,0-5.19-.01-7.78-.02-6.31-.02-12.62-.02-18.94-.02-5.13,0-10.27,0-15.4-.01-14.57-.02-29.13-.03-43.7-.03h-4.76c-12.73,0-25.46-.02-38.18-.05-13.08-.03-26.16-.04-39.25-.04-7.34,0-14.68,0-22.02-.03-6.9-.02-13.81-.02-20.71,0-2.53,0-5.06,0-7.59-.01-3.46-.02-6.92,0-10.39,0-.99-.01-1.99-.02-3.01-.03-9.18.09-17.93,2.37-24.76,8.78h-.01Z"/>
    <path class="cls-1" d="M328.11,99.14c2.44,1.78,4.64,3.7,6.87,5.73.55.49,1.1.99,1.66,1.5,9.6,8.77,17.75,17.19,19.34,30.69.36,11.03-3.13,19.2-10.37,27.55-2.89,3.03-5.83,5.98-8.8,8.92-1.13,1.13-2.26,2.26-3.38,3.39-3.04,3.05-6.09,6.08-9.14,9.12-3.2,3.18-6.39,6.38-9.58,9.57-5.35,5.35-10.72,10.7-16.08,16.04-6.2,6.17-12.4,12.36-18.59,18.54-6.6,6.6-13.2,13.19-19.81,19.78-1.9,1.9-3.8,3.8-5.7,5.69-2.98,2.98-5.97,5.95-8.96,8.92-1.1,1.09-2.19,2.18-3.28,3.28-1.49,1.49-2.99,2.98-4.49,4.46-.84.83-1.67,1.67-2.54,2.52-3.68,3.27-6.34,4.26-11.22,4.3-.98.01-1.96.03-2.97.04h-3.19c-1.09,0-2.19,0-3.3.02-2.3.01-4.61.01-6.91.01-3.52,0-7.04.04-10.56.08-2.24,0-4.48,0-6.72.01-1.05.01-2.1.03-3.18.04-6.03-.04-9.63-.43-14.2-4.5-1.23-2.46-1.18-4.18-1.26-6.93-.03-1.03-.06-2.06-.09-3.12-.1-4.73-.17-9.46-.23-14.19-.04-2.49-.09-4.98-.16-7.47-.1-3.6-.15-7.19-.18-10.79-.04-1.1-.08-2.21-.13-3.34,0-6.01.74-9.46,4.95-13.86.82-.86,1.64-1.73,2.48-2.62.86-.88,1.73-1.77,2.62-2.68.82-.85,1.65-1.7,2.49-2.58,2.69-2.75,5.4-5.47,8.12-8.2,1.03-1.04,2.06-2.07,3.09-3.11,2.77-2.78,5.54-5.56,8.32-8.34,1.74-1.74,3.48-3.48,5.21-5.23,5.45-5.47,10.91-10.93,16.37-16.39,6.27-6.28,12.54-12.56,18.8-18.85,4.86-4.88,9.73-9.76,14.6-14.64,2.9-2.9,5.8-5.81,8.69-8.72,2.72-2.74,5.44-5.46,8.18-8.19,1-.99,1.99-1.99,2.98-2.99,13.69-13.82,31.1-24.9,50.29-13.52l-.04.06ZM301.52,122.13c-.78.8-1.55,1.6-2.36,2.43-.79.81-1.59,1.62-2.39,2.45-.59.61-1.18,1.23-1.79,1.86,5.1,6.18,10.68,11.8,16.38,17.44.93.92,1.85,1.84,2.81,2.79,2.27,2.26,4.54,4.51,6.82,6.77,1.11-.94,2.21-1.88,3.32-2.82.61-.53,1.24-1.06,1.87-1.59,3.99-3.49,6.52-6.03,7.57-11.47-.38-5.46-4.02-8.48-7.75-12.12-.76-.8-1.52-1.61-2.29-2.43-3.39-3.61-7.3-6.46-11.71-8.57-4.62,0-7.13,2.2-10.46,5.26h-.02ZM274.55,148.88c-.71.67-1.42,1.34-2.15,2.02-.78.74-1.56,1.49-2.36,2.25-.82.78-1.64,1.55-2.48,2.35-7.59,7.21-15.11,14.5-22.6,21.82-5.03,4.91-10.08,9.8-15.2,14.62-4.95,4.66-9.83,9.4-14.67,14.18-1.85,1.8-3.72,3.58-5.61,5.33-7.89,7.25-13.43,15.83-16.62,25.73-.2,6.62.24,13.13,1.12,19.68,11.35,1.57,22.24.48,32.67-3.26,5.59-4.56,10.45-9.82,15.34-15.11,1.84-1.89,3.68-3.77,5.53-5.65,4.33-4.41,8.58-8.88,12.81-13.39,4.83-5.13,9.74-10.19,14.65-15.24,10.09-10.37,20.07-20.83,29.99-31.35-1.78-3.82-4.19-6.48-7.16-9.42-.5-.5-1.01-1.01-1.52-1.53-1.06-1.06-2.12-2.12-3.19-3.18-1.63-1.62-3.26-3.26-4.88-4.89-1.03-1.03-2.06-2.06-3.1-3.09-.49-.49-.97-.98-1.47-1.49-3.99-3.93-5.08-4.21-9.11-.4v.02Z"/>
    <path class="cls-1" d="M57.02,107.72c.73,0,1.47,0,2.22,0,2.47,0,4.94,0,7.41-.02,1.77,0,3.53,0,5.3-.02,4.81-.02,9.61-.03,14.42-.04,3,0,6,0,9-.02,9.38-.02,18.77-.03,28.15-.04,10.84,0,21.68-.04,32.52-.08,8.37-.03,16.75-.04,25.12-.05,5,0,10.01,0,15.01-.04,4.71-.02,9.41-.03,14.12-.02,1.73,0,3.46,0,5.18-.02,2.36-.02,4.72,0,7.08,0,.68,0,1.37-.02,2.07-.03,4.69.06,7.04,1.22,10.35,4.52,1.86,3.72,1.58,7.95,1,12-2.53,3.35-4.04,4.68-8,6-2.33.1-4.67.14-7.01.14h-2.17c-2.41,0-4.82,0-7.23,0-1.73,0-3.45,0-5.18.02-4.69,0-9.39.02-14.08.02-2.93,0-5.86,0-8.79,0-9.17,0-18.34.02-27.51.03-10.59,0-21.18.02-31.77.05-8.18.02-16.37.03-24.55.03-4.89,0-9.78,0-14.67.02-4.6.02-9.2.02-13.79,0-1.69,0-3.38,0-5.06,0-2.3,0-4.61,0-6.91,0h-3.91c-4.34-.48-6.77-2.14-10.14-4.75-2.13-2.83-1.67-5.75-1.58-9.17.5-3.4,1.85-5.16,4.36-7.45,2.99-1.49,5.71-1.14,9.04-1.15v.05Z"/>
    <path class="cls-1" d="M54.59,171.72c.97,0,1.94,0,2.94-.02h3.24c1.13,0,2.26,0,3.41-.02,3.73-.02,7.46-.03,11.19-.04,1.27,0,2.54,0,3.85,0,6.04-.02,12.07-.03,18.11-.04,6.97,0,13.93-.04,20.9-.08,6.03-.03,12.07-.05,18.1-.05,2.57,0,5.13-.02,7.7-.04,3.59-.02,7.18-.02,10.77-.02,1.06,0,2.13-.03,3.22-.04,4.81.03,8.51.84,11.1,2.41,3.31,3.73,3.25,6.76,3.22,11.61-.24,1.65-1.13,3.5-2.67,5.55-3.53,2.54-6.03,3.06-10.27,3.08-.94,0-1.88.01-2.85.02h-3.12c-1.09,0-2.18,0-3.29.02-3.6.01-7.19.02-10.79.03-2.49,0-4.99.01-7.48.02-4.56,0-9.13.02-13.69.02-6.05,0-12.09.02-18.14.04-6.49.03-12.97.04-19.46.04-2.47,0-4.95.01-7.42.02-3.46.02-6.92.02-10.38,0-1.02,0-2.05.02-3.1.03-5.06-.03-8.59-.07-12.7-3.38-.59-.46-1.18-.91-1.79-1.38-2.13-2.83-1.67-5.75-1.58-9.17.5-3.4,1.85-5.16,4.36-7.45,2.41-1.2,3.92-1.13,6.61-1.15h0Z"/>
    <path class="cls-1" d="M58.85,235.68c.92,0,1.84-.02,2.78-.02,3.05-.02,6.1-.04,9.15-.06,1.04,0,2.09,0,3.15-.02,5.5-.03,11.01-.05,16.51-.06,5.69-.02,11.38-.06,17.07-.11,4.37-.03,8.74-.05,13.11-.05,2.1,0,4.2-.02,6.29-.05,2.94-.03,5.87-.03,8.8-.02.87-.02,1.73-.03,2.63-.05,4.4.05,6.09.2,9.64,3.04,2.8,3.65,3.33,5.89,3.27,10.55-.45,3.23-1.97,4.84-4.29,7.04-3.87,2.71-8.19,2.29-12.73,2.27-.88,0-1.77,0-2.67.02-2.91.01-5.82.01-8.73.01-2.02,0-4.05,0-6.07.01h-12.72c-5.43,0-10.86.01-16.3.03-4.18.01-8.35.02-12.53.01-2,0-4.01,0-6.01.02-2.8.01-5.6,0-8.4,0-.83,0-1.66.01-2.51.02-5.62-.05-8.66-1.31-13.14-4.78-2.13-2.83-1.67-5.75-1.58-9.17.5-3.4,1.85-5.16,4.36-7.45,3.36-1.68,7.17-1.17,10.87-1.19h.05Z"/>
  </g>
</svg>
