<?xml version="1.0" encoding="UTF-8"?>
<svg id="Layer_2" data-name="Layer 2" xmlns="http://www.w3.org/2000/svg" width="20" height="20" viewBox="0 0 20 20">
  <defs>
    <style>
      .cls-1 {
        stroke-width: 0px;
      }

      .cls-1, .cls-2 {
        fill: #fff;
      }

      .cls-2 {
        stroke: #fff;
        stroke-miterlimit: 10;
      }
    </style>
  </defs>
  <g id="Layer_1-2" data-name="Layer 1-2">
    <path class="cls-2" d="M3.1254,1.6115c.0496,0,.0997,0,.1508-.0005h.3403c.1947,0,.3893-.0005.584-.0005.1393,0,.2792,0,.4185-.001.3794-.0005.7583-.001,1.1377-.001.2369,0,.4739,0,.7108-.0005.6565-.0005,1.313-.001,1.969-.0016h.6388c.6852,0,1.3704-.001,2.0557-.0021.704-.001,1.408-.0021,2.112-.0021.3951,0,.7901,0,1.1852-.001.3366-.001.6727-.001,1.0093-.0005.1717,0,.3429,0,.5146-.0005.1863-.0005.3726,0,.5589,0,.0538,0,.107-.001.1623-.001.7776.0052,1.4873.2912,2.0504.8303.4097.4519.7442,1.0625.7541,1.6841.0005.0496.0016.0992.0026.1493.0021.2244.0047.4483.0057.6727.001.1185.0021.2364.0042.3549.0026.1707.0042.3413.0047.5125.001.0527.0026.1054.0037.1602-.0005.2448-.0527.4347-.1555.5694-.1999.1435-.3627.1722-.6059.1503-.2348-.1153-.2996-.1811-.4175-.4175v-1.2525H1.672c.0052,1.7629.011,3.5263.0162,5.3429.001.5563.0026,1.1132.0042,1.6862.0016.333.0026.6659.0042.9983.001.2223.0016.4446.0016.6664,0,.2839.0016.5673.0031.8512,0,.1039.0005.2077.0005.3121,0,.6977-.0005,1.2906.4921,1.8328.4613.4493,1.038.4775,1.6455.4765h.715c.1315,0,.2625,0,.394.0005.3194,0,.6393.0005.9587.0005h.7797c.7374,0,1.4748.0005,2.2122.0005h.2411c.6445,0,1.2885,0,1.933.001.6623.0005,1.3245.001,1.9868.001.3716,0,.7431,0,1.1147.0005.3497.0005.6988,0,1.0484,0h.9096c.0506,0,.1007.0005.1529.001.5798-.0031,1.1158-.0903,1.5515-.4963.3309-.3512.4368-.7165.4379-1.1904,0-.0365,0-.0736.0005-.1112,0-.0793.0005-.1592.001-.2385,0-.1258.001-.2521.0021-.3778.0026-.358.0052-.716.0063-1.074.0005-.2192.0021-.4384.0042-.6576.0005-.0835.001-.1665.001-.25,0-.1169.001-.2333.0026-.3502,0-.0663.0005-.1326.001-.2009.0318-.2145.1002-.3267.2354-.4942.1931-.1289.3497-.1399.5741-.1044.1915.1044.3131.2087.3653.3131.0057.1268.0089.2526.0094.3794,0,.0391.0005.0783.001.1185.001.1299.0016.2599.0021.3898,0,.0444,0,.0892.0005.1352.001.2364.0021.4728.0021.7087.0005.2427.0026.4853.0047.728.0016.1879.0016.3752.0021.5631,0,.0892.001.1785.0021.2677.0094.9321-.1884,1.6486-.8293,2.3552-.2166.2072-.4425.3512-.7077.4859-.0334.0172-.0668.0339-.1012.0517-.4572.2166-.9268.251-1.4263.2495-.0569,0-.1148,0-.1727.0005-.19.0005-.3794.0005-.5694,0-.1367,0-.2729.0005-.4097.001-.3319.001-.6633.001-.9952.001-.2698,0-.5396,0-.8094.0005-.7666.001-1.5333.0016-2.2999.0016h-.2505c-.669,0-1.3381.001-2.0066.0026-.6884.0016-1.3767.0021-2.0651.0021-.3857,0-.7719,0-1.1575.0016-.3632.001-.7264.001-1.0897,0-.1326,0-.2656,0-.3982.0005-1.0829.0047-2.0577-.0412-2.8901-.8256-.549-.5866-.7974-1.2916-.7969-2.0838,0-.0485,0-.0976-.0005-.1477-.0005-.1633-.0005-.3272-.001-.4906,0-.1174-.0005-.2343-.001-.3517-.001-.3851-.0016-.7698-.0021-1.1549,0-.1326,0-.2651-.0005-.3982-.001-.5521-.0016-1.1038-.0021-1.6559v-.5375c0-.5756-.0016-1.1513-.0037-1.7269-.0016-.5918-.0026-1.1836-.0026-1.7754,0-.3319-.0005-.6638-.0021-.9957-.001-.3126-.0016-.6252-.001-.9378,0-.1143,0-.2286-.001-.3429-.0037-.597,0-1.1257.2343-1.6846.0167-.0402.0334-.0809.0506-.1221.2902-.6591.8496-1.1304,1.5113-1.3913.2782-.0992.5344-.1628.8303-.1633v.0016h-.0005ZM2.2231,3.197c-.0407.0371-.0814.0736-.1237.1117-.1007.1127-.2087.2975-.323.5537h16.439c-.2202-.514-.4399-.7515-.9394-.9916-.3136-.1117-.5996-.1195-.9305-.1185-.0564,0-.1127,0-.1707-.0005-.1884-.0005-.3773-.0005-.5657,0-.1352,0-.2709-.0005-.406-.001-.3293-.001-.6586-.001-.9884-.001-.2677,0-.536,0-.8037-.0005-.7604-.001-1.5202-.0016-2.2806-.0016h-.2484c-.6643,0-1.3287-.001-1.9925-.0026-.6826-.0016-1.3652-.0021-2.0484-.0021-.3831,0-.7661,0-1.1492-.0016-.3601-.001-.7207-.001-1.0808,0-.132,0-.2641,0-.3961-.0005-.1806-.001-.3611,0-.5422,0-.0517-.0005-.1039-.001-.1571-.0016-.4791.0047-.9357.1237-1.2922.4582h-.0005v-.0005Z"/>
    <path class="cls-1" d="M17.5959,6.7468c.1273.0929.2422.1931.3585.299.0287.0256.0574.0517.0866.0783.501.4577.9263.8971,1.0093,1.6016.0188.5756-.1633,1.002-.5412,1.4378-.1508.1581-.3043.3121-.4592.4655-.059.059-.1179.1179-.1764.1769-.1587.1592-.3178.3173-.477.4759-.167.166-.3335.333-.5.4994-.2792.2792-.5594.5584-.8392.8371-.3236.322-.6471.645-.9702.9676-.3444.3444-.6889.6884-1.0338,1.0323-.0992.0992-.1983.1983-.2975.2969-.1555.1555-.3116.3105-.4676.4655-.0574.0569-.1143.1138-.1712.1712-.0778.0778-.156.1555-.2343.2328-.0438.0433-.0872.0872-.1326.1315-.192.1707-.3309.2223-.5855.2244-.0511.0005-.1023.0016-.155.0021h-.1665c-.0569,0-.1143,0-.1722.001-.12.0005-.2406.0005-.3606.0005-.1837,0-.3674.0021-.5511.0042-.1169,0-.2338,0-.3507.0005-.0548.0005-.1096.0016-.166.0021-.3147-.0021-.5026-.0224-.7411-.2348-.0642-.1284-.0616-.2181-.0658-.3617-.0016-.0538-.0031-.1075-.0047-.1628-.0052-.2468-.0089-.4937-.012-.7405-.0021-.1299-.0047-.2599-.0084-.3898-.0052-.1879-.0078-.3752-.0094-.5631-.0021-.0574-.0042-.1153-.0068-.1743,0-.3136.0386-.4937.2583-.7233.0428-.0449.0856-.0903.1294-.1367.0449-.0459.0903-.0924.1367-.1399.0428-.0444.0861-.0887.1299-.1346.1404-.1435.2818-.2855.4238-.4279.0538-.0543.1075-.108.1613-.1623.1446-.1451.2891-.2902.4342-.4352.0908-.0908.1816-.1816.2719-.2729.2844-.2855.5694-.5704.8543-.8554.3272-.3277.6544-.6555.9811-.9837.2536-.2547.5078-.5093.7619-.764.1513-.1513.3027-.3032.4535-.4551.1419-.143.2839-.2849.4269-.4274.0522-.0517.1039-.1039.1555-.156.7144-.7212,1.623-1.2995,2.6245-.7056l-.0021.0031h0ZM16.2083,7.9466c-.0407.0418-.0809.0835-.1232.1268-.0412.0423-.083.0845-.1247.1279-.0308.0318-.0616.0642-.0934.0971.2662.3225.5574.6158.8548.9101.0485.048.0965.096.1466.1456.1185.1179.2369.2354.3559.3533.0579-.0491.1153-.0981.1733-.1472.0318-.0277.0647-.0553.0976-.083.2082-.1821.3403-.3147.3951-.5986-.0198-.2849-.2098-.4425-.4045-.6325-.0397-.0418-.0793-.084-.1195-.1268-.1769-.1884-.381-.3371-.6111-.4472-.2411,0-.3721.1148-.5459.2745h-.001ZM14.8008,9.3426c-.0371.035-.0741.0699-.1122.1054-.0407.0386-.0814.0778-.1232.1174-.0428.0407-.0856.0809-.1294.1226-.3961.3763-.7886.7567-1.1794,1.1387-.2625.2562-.526.5114-.7932.763-.2583.2432-.513.4906-.7656.74-.0965.0939-.1941.1868-.2928.2782-.4118.3784-.7009.8261-.8674,1.3428-.0104.3455.0125.6852.0584,1.027.5923.0819,1.1606.0251,1.705-.1701.2917-.238.5454-.5125.8006-.7886.096-.0986.192-.1967.2886-.2949.226-.2301.4478-.4634.6685-.6988.2521-.2677.5083-.5318.7645-.7953.5266-.5412,1.0474-1.0871,1.5651-1.6361-.0929-.1994-.2187-.3382-.3737-.4916-.0261-.0261-.0527-.0527-.0793-.0798-.0553-.0553-.1106-.1106-.1665-.166-.0851-.0845-.1701-.1701-.2547-.2552-.0538-.0538-.1075-.1075-.1618-.1613-.0256-.0256-.0506-.0511-.0767-.0778-.2082-.2051-.2651-.2197-.4754-.0209v.001h.0005Z"/>
    <path class="cls-1" d="M3.4485,7.1945h.1159c.1289,0,.2578,0,.3867-.001.0924,0,.1842,0,.2766-.001.251-.001.5015-.0016.7525-.0021.1566,0,.3131,0,.4697-.001.4895-.001.9796-.0016,1.4691-.0021.5657,0,1.1314-.0021,1.6971-.0042.4368-.0016.8741-.0021,1.3109-.0026.2609,0,.5224,0,.7833-.0021.2458-.001.4911-.0016.7369-.001.0903,0,.1806,0,.2703-.001.1232-.001.2463,0,.3695,0,.0355,0,.0715-.001.108-.0016.2448.0031.3674.0637.5401.2359.0971.1941.0825.4149.0522.6262-.132.1748-.2108.2442-.4175.3131-.1216.0052-.2437.0073-.3658.0073h-.4906c-.0903,0-.18,0-.2703.001-.2448,0-.49.001-.7348.001h-.4587c-.4786,0-.9571.001-1.4357.0016-.5527,0-1.1053.001-1.658.0026-.4269.001-.8543.0016-1.2812.0016-.2552,0-.5104,0-.7656.001-.2401.001-.4801.001-.7197,0h-.8287c-.2265-.025-.3533-.1117-.5292-.2479-.1112-.1477-.0872-.3001-.0825-.4786.0261-.1774.0965-.2693.2275-.3888.156-.0778.298-.0595.4718-.06v.0037Z"/>
    <path class="cls-1" d="M3.3217,10.5345c.0506,0,.1012,0,.1534-.001h.1691c.059,0,.1179,0,.178-.001.1947-.001.3893-.0016.584-.0021h.2009c.3152-.001.6299-.0016.9451-.0021.3637,0,.727-.0021,1.0907-.0042.3147-.0016.6299-.0026.9446-.0026.1341,0,.2677-.001.4018-.0021.1874-.001.3747-.001.5621-.001.0553,0,.1112-.0016.168-.0021.251.0016.4441.0438.5793.1258.1727.1947.1696.3528.168.6059-.0125.0861-.059.1827-.1393.2896-.1842.1326-.3147.1597-.536.1607-.0491,0-.0981.0005-.1487.001h-.1628c-.0569,0-.1138,0-.1717.001-.1879.0005-.3752.001-.5631.0016-.1299,0-.2604.0005-.3904.001-.238,0-.4765.001-.7144.001-.3157,0-.6309.001-.9467.0021-.3387.0016-.6769.0021-1.0156.0021-.1289,0-.2583.0005-.3872.001-.1806.001-.3611.001-.5417,0-.0532,0-.107.001-.1618.0016-.2641-.0016-.4483-.0037-.6628-.1764-.0308-.024-.0616-.0475-.0934-.072-.1112-.1477-.0872-.3001-.0825-.4786.0261-.1774.0965-.2693.2275-.3888.1258-.0626.2046-.059.345-.06h0l.0005-.0005Z"/>
    <path class="cls-1" d="M3.544,13.8724c.048,0,.096-.001.1451-.001.1592-.001.3183-.0021.4775-.0031.0543,0,.1091,0,.1644-.001.287-.0016.5746-.0026.8616-.0031.2969-.001.5939-.0031.8908-.0057.2281-.0016.4561-.0026.6842-.0026.1096,0,.2192-.001.3283-.0026.1534-.0016.3063-.0016.4592-.001.0454-.001.0903-.0016.1373-.0026.2296.0026.3178.0104.5031.1586.1461.1905.1738.3074.1707.5506-.0235.1686-.1028.2526-.2239.3674-.202.1414-.4274.1195-.6643.1185-.0459,0-.0924,0-.1393.001-.1519.0005-.3037.0005-.4556.0005-.1054,0-.2114,0-.3168.0005h-.6638c-.2834,0-.5668.0005-.8507.0016-.2181.0005-.4358.001-.6539.0005-.1044,0-.2093,0-.3136.001-.1461.0005-.2922,0-.4384,0-.0433,0-.0866.0005-.131.001-.2933-.0026-.4519-.0684-.6857-.2495-.1112-.1477-.0872-.3001-.0825-.4786.0261-.1774.0965-.2693.2275-.3888.1753-.0877.3742-.0611.5673-.0621h.0026v.0005Z"/>
  </g>
</svg>
