<svg width="18" height="18" viewBox="0 0 18 18" fill="none" xmlns="http://www.w3.org/2000/svg">
<g clip-path="url(#clip0_2484_3296)">
<path d="M14.3693 13.7716C15.5389 12.4603 16.1857 10.7651 16.1881 9.0079C16.1899 7.25065 15.5465 5.55445 14.3798 4.24015C14.3664 4.2214 14.3511 4.20323 14.3347 4.18741C12.9736 2.67571 11.0353 1.81201 9.00088 1.81201C6.96703 1.81201 5.02828 2.67568 3.66763 4.18741C3.65005 4.20323 3.63423 4.22081 3.62075 4.24015C2.45591 5.55206 1.8125 7.2454 1.8125 8.99965C1.8125 10.7539 2.45587 12.4472 3.62075 13.7591C3.63423 13.7779 3.64946 13.7961 3.66587 13.8119C5.027 15.3236 6.96587 16.1873 9.00017 16.1873C11.0345 16.1873 12.9734 15.3236 14.3345 13.8119C14.3468 13.799 14.3585 13.7855 14.369 13.7715L14.3693 13.7716ZM2.44554 9.3121H5.25039C5.26797 10.4002 5.42501 11.4818 5.71914 12.5294C5.1086 12.6859 4.5168 12.9068 3.95364 13.1886C3.04134 12.0958 2.51165 10.7342 2.44539 9.31202L2.44554 9.3121ZM3.95379 4.8109C4.51688 5.09273 5.10867 5.31364 5.71929 5.47007C5.42516 6.51773 5.26812 7.59932 5.25054 8.68742H2.43804C2.5066 7.26418 3.03863 5.9026 3.95379 4.8109ZM15.563 8.6875H12.7505C12.733 7.59941 12.5759 6.51775 12.2818 5.47015C12.8923 5.3137 13.4841 5.09281 14.0473 4.81097C14.9625 5.90257 15.4946 7.26415 15.563 8.6875ZM8.68824 5.2498C7.96637 5.23632 7.24683 5.16015 6.53784 5.02187C7.05347 3.62617 7.82573 2.66057 8.68824 2.47187V5.2498ZM6.34449 5.61367C7.11617 5.77129 7.90074 5.85859 8.68824 5.875V8.6875H5.87574C5.89684 7.64687 6.05445 6.61327 6.34449 5.61367ZM8.68824 9.31207V12.1246C7.90074 12.1392 7.11624 12.2253 6.34449 12.3812C6.05504 11.3828 5.89742 10.3516 5.87574 9.31205L8.68824 9.31207ZM8.68824 12.7498V15.5278C7.82574 15.3385 7.05399 14.3729 6.53844 12.9824H6.53786C7.24685 12.8424 7.96577 12.7644 8.68824 12.7498ZM9.31344 12.7498H9.31286C10.0347 12.7632 10.7543 12.8394 11.4633 12.9777C10.9476 14.3681 10.176 15.3337 9.31346 15.523L9.31344 12.7498ZM11.6572 12.3812H11.6566C10.8849 12.2254 10.1004 12.1392 9.31286 12.1246V9.31208H12.1254C12.1043 10.3527 11.9466 11.3863 11.6566 12.3859L11.6572 12.3812ZM9.31284 8.68747V5.87497C10.1003 5.86032 10.8848 5.77418 11.6566 5.61833C11.946 6.61676 12.1037 7.64798 12.1253 8.68748L9.31284 8.68747ZM9.31284 5.24977V2.47177C10.1753 2.66102 10.9471 3.62665 11.4626 5.01712H11.4632C10.7542 5.15715 10.0353 5.23511 9.31284 5.24977ZM12.0878 4.87769C11.8224 4.07261 11.3947 3.33089 10.8304 2.69804C11.8769 3.00332 12.8314 3.56464 13.6066 4.33109C13.1191 4.5596 12.6105 4.74125 12.0879 4.87309L12.0878 4.87769ZM5.91264 4.87769H5.91323C5.39057 4.74585 4.88198 4.56422 4.39448 4.3357C5.16909 3.56753 6.12353 3.00445 7.17068 2.698C6.60701 3.32963 6.17927 4.06967 5.91326 4.873L5.91264 4.87769ZM5.91264 13.1307L5.91323 13.1313C6.17924 13.9346 6.60698 14.6746 7.17065 15.3063C6.12357 14.9998 5.16905 14.4367 4.39445 13.6686C4.88195 13.4401 5.39054 13.2584 5.9132 13.1266L5.91264 13.1307ZM12.0878 13.1307V13.1313C12.6105 13.2631 13.1191 13.4447 13.6066 13.6733C12.8308 14.4379 11.8763 14.9975 10.8304 15.3015C11.3941 14.6699 11.8218 13.9298 12.0878 13.1265L12.0878 13.1307ZM12.2818 12.5295C12.5759 11.4819 12.733 10.4003 12.7505 9.31217H15.563C15.4945 10.7354 14.9625 12.0971 14.0473 13.1888C13.4842 12.9069 12.8924 12.686 12.2818 12.5295Z" fill="#3F4966" stroke="#3F4966" stroke-width="0.2"/>
</g>
<defs>
<clipPath id="clip0_2484_3296">
<rect width="15" height="15" fill="white" transform="translate(1.5 1.5)"/>
</clipPath>
</defs>
</svg>
