<svg width="13" height="14" viewBox="0 0 13 14" fill="none" xmlns="http://www.w3.org/2000/svg">
<g id="hamburger" clip-path="url(#clip0_1931_27402)">
<g id="Group">
<path id="Vector" d="M12.3906 2.10889H0.609375C0.272701 2.10889 0 2.38159 0 2.71826C0 3.05494 0.272701 3.32764 0.609375 3.32764H12.3906C12.7273 3.32764 13 3.05494 13 2.71826C13 2.38159 12.7273 2.10889 12.3906 2.10889Z" fill="#3F4966"/>
<path id="Vector_2" d="M12.3906 10.6719H0.609375C0.272701 10.6719 0 10.9446 0 11.2812C0 11.6179 0.272701 11.8906 0.609375 11.8906H12.3906C12.7273 11.8906 13 11.6179 13 11.2812C13 10.9446 12.7273 10.6719 12.3906 10.6719Z" fill="#3F4966"/>
<path id="Vector_3" d="M12.3906 6.39014H0.609375C0.272701 6.39014 0 6.66284 0 6.99951C0 7.33619 0.272701 7.60889 0.609375 7.60889H12.3906C12.7273 7.60889 13 7.33619 13 6.99951C13 6.66284 12.7273 6.39014 12.3906 6.39014Z" fill="#3F4966"/>
</g>
</g>
<defs>
<clipPath id="clip0_1931_27402">
<rect width="13" height="13" fill="white" transform="translate(0 0.5)"/>
</clipPath>
</defs>
</svg>
