<svg width="228" height="827" viewBox="0 0 228 827" fill="none" xmlns="http://www.w3.org/2000/svg">
<path d="M-90.0494 50.6543C-72.6658 63.32 -53.4563 78.9974 -37.9746 96.49C-10.5012 127.525 16.7439 162.5 40.1567 197.506C55.9712 221.156 76.493 257.028 87.7144 283.422C102.635 318.552 111.479 343.161 119.667 381.746C131.202 436.112 129.614 491.911 117.898 544.512C100.657 621.899 45.4821 686.651 -9.65488 739.211C-52.7906 780.323 -110.78 807.222 -161.733 826.984L-167.001 811.894C-116.515 792.328 -63.004 766.193 -21.6655 726.741C31.5124 675.986 80.6297 614.091 101.817 540.335C114.722 495.438 117.717 446.178 110.946 398.476C105.012 356.683 90.1013 314.808 75.5801 276.728C63.636 245.425 49.7139 221.043 32.7296 195.361C11.1903 162.799 -12.4697 131.032 -37.6227 102.039C-53.9032 83.2674 -75.6803 66.3214 -93.1781 53.5835L-90.0399 50.6543H-90.0494Z" fill="#719E73" fill-opacity="0.1"/>
<path d="M-67.964 780.87C-67.964 780.87 -32.1792 768.597 -3.77391 772.217C41.3208 777.951 45.4766 808.316 45.4766 808.316C45.4766 808.316 27.3892 820.497 -11.4102 815.866C-56.8663 810.441 -67.9545 780.87 -67.9545 780.87H-67.964Z" fill="#719E73" fill-opacity="0.1"/>
<path d="M-7.02731 735.528C-7.02731 735.528 23.1373 720.016 51.7328 720.243C101.24 720.645 104.207 749.163 104.207 749.163C104.207 749.163 86.2908 763.18 46.6356 762.613C0.913246 761.953 -7.02731 735.538 -7.02731 735.538V735.528Z" fill="#719E73" fill-opacity="0.1"/>
<path d="M38.0539 687.845C38.0539 687.845 66.735 660.585 94.4746 653.045C142.498 639.998 158.398 670.301 158.398 670.301C158.398 670.301 140.549 693.528 102.025 703.729C57.6057 715.497 38.0539 687.845 38.0539 687.845Z" fill="#719E73" fill-opacity="0.1"/>
<path d="M88.9797 614.401C88.9797 614.401 113.505 586.368 147.074 575.177C190.885 560.572 211.483 589.245 212.082 589.957C212.082 589.957 194.128 614.463 156.669 625.211C106.43 639.619 88.9701 614.401 88.9701 614.401H88.9797Z" fill="#719E73" fill-opacity="0.1"/>
<path d="M113.219 555.951C113.219 555.951 136.061 518.222 170.124 500.42C203.218 483.113 227.391 497.852 228 498.429C228 498.429 210.997 532.125 179.72 548.267C137.221 570.205 113.209 555.94 113.209 555.94L113.219 555.951Z" fill="#719E73" fill-opacity="0.1"/>
<path d="M120.568 504.659C132.759 492.22 133.672 458.41 151.094 430.975C175.4 392.699 215.502 395.474 216.102 395.835C216.102 395.835 211.813 443.517 181.41 472.345C149.106 502.977 120.568 504.659 120.568 504.659Z" fill="#719E73" fill-opacity="0.1"/>
<path d="M123.945 424.283C123.945 424.283 122.766 382.841 132.836 351.363C146.892 307.456 185.273 298.833 185.938 299.008C185.938 299.008 192.158 345.958 169.915 382.501C146.274 421.344 123.945 424.283 123.945 424.283Z" fill="#719E73" fill-opacity="0.1"/>
<path d="M107.705 346.607C107.705 346.607 100.049 311.817 103.929 278.761C109.778 228.944 145.515 218.403 146.2 218.475C146.2 218.475 158.448 264.61 141.027 304.113C122.502 346.091 107.714 346.607 107.714 346.607H107.705Z" fill="#719E73" fill-opacity="0.1"/>
<path d="M76.2094 263.207C76.2094 263.207 63.7613 231.728 65.3589 198.455C67.5747 152.279 96.4174 132.775 97.1021 132.744C97.1021 132.744 124.918 159.942 108.942 218.495C99.2513 254.017 76.1999 263.196 76.1999 263.196L76.2094 263.207Z" fill="#719E73" fill-opacity="0.1"/>
<path d="M36.1722 194.639C36.1722 194.639 17.6759 163.738 12.5597 130.888C7.75736 100.048 19.2926 66.4452 21.8697 63.3613C21.8697 63.3613 51.9677 77.7082 50.8361 132.765C50.0753 169.792 36.1722 194.639 36.1722 194.639Z" fill="#719E73" fill-opacity="0.1"/>
<path d="M39.1289 201.756C39.1289 201.756 19.986 177.271 -14.5626 170.67C-41.1896 165.585 -53.98 170.804 -67.1224 179.107C-67.1224 179.107 -50.9274 205.985 -12.0615 209.863C21.945 213.256 34.1363 204.046 39.1289 201.756Z" fill="#719E73" fill-opacity="0.1"/>
<path d="M79.4336 278.545C79.4336 278.545 61.546 248.366 29.2132 233.617C-3.91845 218.507 -20.9407 225.717 -35.1957 231.492C-30.6501 238.888 -12.0492 269.706 18.1059 278.958C50.9712 289.045 74.1462 279.896 79.4336 278.545Z" fill="#719E73" fill-opacity="0.1"/>
<path d="M103.383 346.74C103.383 346.74 87.5397 315.251 56.253 298.027C24.196 280.379 6.74578 286.258 -7.84202 290.91C-3.80042 298.635 12.7178 330.825 42.1882 342.387C74.3023 354.991 98.0289 347.668 103.383 346.74Z" fill="#719E73" fill-opacity="0.1"/>
<path d="M115.945 427.787C102.232 408.717 94.7768 388.212 73.6749 367.811C47.6756 342.676 25.3754 350.69 10.2361 352.309C17.6916 367.491 28.875 391.503 52.0024 409.604C79.704 431.274 110.525 427.622 115.945 427.787Z" fill="#719E73" fill-opacity="0.1"/>
<path d="M114.234 502.464C102.576 481.846 97.0409 465.777 78.1738 442.941C54.9322 414.805 32.9079 419.807 17.6924 419.58C23.5314 435.567 33.3738 459.495 54.4853 480.278C79.7714 505.176 108.861 501.639 114.225 502.464H114.234Z" fill="#719E73" fill-opacity="0.1"/>
<path d="M99.2305 562.005C81.6852 532.631 83.9009 525.978 66.7265 501.627C48.2873 475.47 24.9982 476.182 9.84929 474.635C14.49 491.086 21.413 513.333 41.079 535.735C62.0382 559.623 83.8534 556.549 99.2305 562.005Z" fill="#719E73" fill-opacity="0.1"/>
<path d="M70.4336 620.355C59.3739 594.363 61.2853 578.139 51.1385 559.718C34.5537 529.591 18.2922 528.291 3.14333 526.744C15.2206 564.287 12.4248 564.452 25.7287 587.319C38.6714 609.566 56.2547 612.557 70.4336 620.365V620.355Z" fill="#719E73" fill-opacity="0.1"/>
<path d="M35.6758 669.417C29.3709 641.62 35.7709 633.111 29.0476 612.937C18.0449 579.932 2.30643 575.311 -12.2909 570.67C-10.6077 592.825 -13.1467 606.883 -1.69713 630.894C6.38607 647.85 23.123 658.845 35.6758 669.427V669.417Z" fill="#719E73" fill-opacity="0.1"/>
</svg>
