<svg width="20" height="20" viewBox="0 0 20 20" fill="none" xmlns="http://www.w3.org/2000/svg">
<path d="M7.16875 3.00045C7.11094 3.00435 7.05391 3.01764 7 3.03795L1.4 5.03795C1.16172 5.12232 1.00156 5.34733 1 5.60045V16.4004C1.00078 16.595 1.09609 16.7762 1.25468 16.8879C1.41405 16.9997 1.61718 17.0278 1.8 16.9629L7.2 15.0317L12.6 16.9629C12.7297 17.009 12.8703 17.009 13 16.9629L18.6 14.9629C18.8383 14.8786 18.9984 14.6536 19 14.4004V3.60045C18.9992 3.40592 18.9039 3.22467 18.7453 3.11295C18.5859 3.00123 18.3828 2.9731 18.2 3.03795L12.8 4.96919L7.4 3.03795C7.32578 3.0106 7.24765 2.99732 7.16875 3.00045ZM6.59999 4.44421V13.9818L2.19999 15.5506V6.01937L6.59999 4.44421ZM7.79999 4.44421L12.2 6.01921V15.5568L7.79999 13.9818V4.44421ZM17.8 4.45046V13.9817L13.4 15.5567V6.01906L17.8 4.45046Z" fill="white"/>
</svg>
