<svg width="15" height="16" viewBox="0 0 15 16" fill="none" xmlns="http://www.w3.org/2000/svg">
<g clip-path="url(#clip0_2394_9165)">
<path d="M14.1916 10.978L12.4484 9.233C12.1039 8.87558 11.6879 8.68808 11.2472 8.68808C10.8089 8.68808 10.3906 8.87558 10.0355 9.22832L9.12731 10.1365C9.08161 10.1131 9.03825 10.0908 8.99723 10.0709C8.89059 10.0182 8.78747 9.96543 8.69957 9.90977C7.77848 9.32501 6.93887 8.55919 6.13202 7.57067C5.77577 7.12067 5.52968 6.74333 5.35156 6.37067C5.58124 6.15505 5.79805 5.93591 6.00313 5.72497C6.08985 5.63707 6.18008 5.54626 6.26855 5.45837C6.63184 5.09509 6.82402 4.67204 6.82402 4.23494C6.82402 3.79549 6.63184 3.37244 6.26855 3.01151L5.40254 2.1455C5.30411 2.04706 5.21036 1.95214 5.11426 1.85078L5.10957 1.84609C4.9209 1.65156 4.71699 1.44472 4.51308 1.25605C4.16738 0.917383 3.75429 0.739258 3.31776 0.739258C2.88417 0.739258 2.46698 0.919723 2.11073 1.25958L1.01972 2.35059C0.57909 2.78712 0.329475 3.32031 0.278505 3.93549C0.219912 4.66791 0.352918 5.44134 0.697455 6.36594C1.21601 7.77511 1.99707 9.07884 3.15371 10.4692C4.55528 12.145 6.24866 13.4704 8.18396 14.4097L8.18513 14.4109C8.93396 14.7654 9.93593 15.1814 11.0444 15.2534H11.0573C11.1218 15.2564 11.1874 15.2593 11.2577 15.2593C12.0534 15.2593 12.6944 14.9839 13.2176 14.4167C13.2264 14.4062 13.2381 14.3945 13.2498 14.3786C13.3963 14.204 13.5633 14.04 13.742 13.8689L13.783 13.829C13.95 13.6697 14.0819 13.5378 14.199 13.4159C14.5494 13.0515 14.7334 12.6279 14.7322 12.1902C14.7322 11.7507 14.5447 11.3318 14.1902 10.9773L14.1916 10.978ZM1.4873 4.03925C1.5166 3.70643 1.64081 3.44159 1.87696 3.20605L2.95625 2.12675C3.07461 2.01249 3.19942 1.95097 3.31484 1.95097C3.45547 1.95097 3.58027 2.04764 3.65938 2.12792L3.66817 2.13671C3.83224 2.28905 3.99043 2.45018 4.15742 2.62011L4.23359 2.69746C4.2834 2.74902 4.33437 2.8 4.38593 2.85274C4.43574 2.90254 4.48554 2.95352 4.53535 3.00508L5.40371 3.87344C5.49453 3.96426 5.60293 4.10195 5.60293 4.23965C5.60293 4.37735 5.49453 4.51504 5.40371 4.60586C5.35801 4.65157 5.31289 4.69668 5.26719 4.74356C5.22324 4.78926 5.17812 4.83438 5.13242 4.88008L5.0709 4.94161C4.82598 5.18887 4.59336 5.42324 4.34316 5.64766L4.31855 5.67227C3.93887 6.05195 4.06952 6.44453 4.1123 6.57344C4.11523 6.58398 4.11816 6.59101 4.12109 6.5998L4.12695 6.61445C4.36425 7.18282 4.68945 7.71308 5.18163 8.3324L5.1828 8.33357C6.06873 9.42635 7.00395 10.2771 8.0421 10.938C8.15636 11.0124 8.27178 11.0716 8.38488 11.1267C8.40539 11.1372 8.42707 11.1472 8.44816 11.1589L8.44933 11.1601C8.55597 11.2128 8.65909 11.2656 8.74699 11.3212L8.77336 11.3359C8.78215 11.3406 8.79094 11.3464 8.79972 11.3505C8.92863 11.4161 9.06164 11.4501 9.19523 11.4501C9.42082 11.4501 9.6259 11.3593 9.80461 11.1794L10.8915 10.0925C10.9765 10.0075 11.1054 9.90793 11.246 9.90793C11.3896 9.90793 11.5144 10.0193 11.5771 10.0866L11.58 10.0896L13.3348 11.8416C13.5868 12.0935 13.5821 12.3162 13.3231 12.5857L13.3202 12.5886C13.1972 12.7205 13.0671 12.8465 12.944 12.9648L12.9089 12.9982C12.7126 13.1886 12.5104 13.3849 12.3218 13.6105C12.0346 13.9181 11.7077 14.0546 11.2624 14.0546C11.2214 14.0546 11.1745 14.0517 11.1276 14.0488C10.2182 13.9902 9.36106 13.6316 8.71471 13.3234C6.93646 12.4621 5.37961 11.2433 4.08871 9.6994C3.02347 8.41736 2.30866 7.2268 1.83571 5.9506C1.55563 5.19767 1.44313 4.5883 1.48708 4.0375L1.4873 4.03925Z" fill="white"/>
</g>
<defs>
<clipPath id="clip0_2394_9165">
<rect width="15" height="15" fill="white" transform="translate(0 0.5)"/>
</clipPath>
</defs>
</svg>
