<svg width="18" height="18" viewBox="0 0 18 18" fill="none" xmlns="http://www.w3.org/2000/svg">
<g clip-path="url(#clip0_2484_3404)">
<path fill-rule="evenodd" clip-rule="evenodd" d="M8.99988 6.09249C9.54479 6.09249 10.0357 6.42035 10.2446 6.92406C10.4529 7.42718 10.3375 8.00633 9.95214 8.39165C9.56741 8.77697 8.98768 8.89187 8.48456 8.68353C7.98144 8.47519 7.65299 7.98369 7.65299 7.43936C7.65415 6.696 8.25651 6.09307 8.99988 6.09249ZM8.99988 9.6381C9.58308 9.6381 10.1425 9.40656 10.5545 8.99397C10.9671 8.58138 11.1987 8.02254 11.1987 7.43932C11.1987 6.85612 10.9671 6.29671 10.5545 5.88408C10.1425 5.47207 9.5831 5.23995 8.99988 5.23995C8.41666 5.23995 7.85727 5.47207 7.44523 5.88408C7.03264 6.29666 6.8011 6.85609 6.8011 7.43932C6.80168 8.02195 7.03322 8.58135 7.44581 8.99338C7.85782 9.40539 8.41667 9.63752 8.99988 9.6381ZM5.57148 3.99412C3.78478 5.78081 3.798 8.61499 5.60397 10.8869L8.99984 15.1609L12.3963 10.8875C14.2016 8.61558 14.2155 5.78081 12.4282 3.99471V3.99413C11.5183 3.08654 10.2851 2.57645 8.99982 2.57645C7.7145 2.57645 6.48139 3.08652 5.57148 3.99412ZM4.93663 11.4174L8.66616 16.1103C8.74682 16.2118 8.86985 16.271 8.99983 16.271C9.12982 16.271 9.25284 16.2118 9.33351 16.1103L13.063 11.4174C14.002 10.2637 14.5422 8.83678 14.6013 7.35002C14.6553 5.86909 14.0854 4.43281 13.0305 3.39172C11.9598 2.32628 10.5102 1.72803 8.9997 1.72803C7.48917 1.72803 6.03955 2.32631 4.9689 3.39172C3.91391 4.43278 3.34398 5.86906 3.39806 7.35002C3.45725 8.83678 3.99692 10.2637 4.93637 11.4174H4.93663Z" fill="#3F4966" stroke="#3F4966" stroke-width="0.5"/>
</g>
<defs>
<clipPath id="clip0_2484_3404">
<rect width="14.8557" height="14.8557" fill="white" transform="translate(1.57227 1.57227)"/>
</clipPath>
</defs>
</svg>
