<svg width="69" height="133" viewBox="0 0 69 133" fill="none" xmlns="http://www.w3.org/2000/svg">
<path d="M54.9053 8.28271C51.9318 10.3022 48.646 12.8019 45.9978 15.591C41.2984 20.5394 36.6381 26.116 32.6333 31.6976C29.9282 35.4685 26.4179 41.1882 24.4985 45.3965C21.9463 50.9978 20.4335 54.9216 19.033 61.0738C17.0598 69.7422 17.3315 78.6391 19.3355 87.0262C22.2846 99.3651 31.7224 109.689 41.1537 118.07C48.5321 124.625 58.4514 128.914 67.1669 132.065L68.0681 129.659C59.4322 126.539 50.2791 122.372 43.2081 116.082C34.1119 107.989 25.7103 98.1202 22.0862 86.3602C19.8788 79.2015 19.3664 71.3472 20.5246 63.7413C21.5396 57.0776 24.0902 50.4008 26.5741 44.3292C28.6171 39.3381 30.9985 35.4504 33.9037 31.3555C37.5881 26.1637 41.6351 21.0986 45.9376 16.4758C48.7224 13.4827 52.4474 10.7808 55.4405 8.74976L54.9037 8.28271H54.9053Z" fill="#719E73"/>
<path d="M51.1264 124.712C51.1264 124.712 45.0053 122.755 40.1466 123.333C32.433 124.247 31.7222 129.088 31.7222 129.088C31.7222 129.088 34.816 131.031 41.4527 130.292C49.2281 129.427 51.1248 124.712 51.1248 124.712H51.1264Z" fill="#719E73"/>
<path d="M40.7031 117.483C40.7031 117.483 35.5434 115.01 30.6521 115.046C22.1838 115.11 21.6763 119.657 21.6763 119.657C21.6763 119.657 24.7409 121.892 31.524 121.802C39.3449 121.696 40.7031 117.485 40.7031 117.485V117.483Z" fill="#719E73"/>
<path d="M32.9914 109.88C32.9914 109.88 28.0855 105.534 23.3405 104.332C15.126 102.251 12.4062 107.083 12.4062 107.083C12.4062 107.083 15.4595 110.786 22.049 112.413C29.647 114.289 32.9914 109.88 32.9914 109.88Z" fill="#719E73"/>
<path d="M24.28 98.1696C24.28 98.1696 20.0849 93.6998 14.3429 91.9155C6.84893 89.5868 3.32562 94.1586 3.22314 94.2721C3.22314 94.2721 6.29424 98.1795 12.7016 99.8931C21.2951 102.191 24.2817 98.1696 24.2817 98.1696H24.28Z" fill="#719E73"/>
<path d="M20.1336 88.8502C20.1336 88.8502 16.2264 82.8345 10.3997 79.996C4.73903 77.2365 0.604105 79.5865 0.5 79.6786C0.5 79.6786 3.40844 85.0513 8.75846 87.625C16.0279 91.1229 20.1352 88.8485 20.1352 88.8485L20.1336 88.8502Z" fill="#719E73"/>
<path d="M18.8754 80.6718C16.7901 78.6885 16.6339 73.2977 13.6539 68.9232C9.49621 62.8204 2.63666 63.2628 2.53418 63.3203C2.53418 63.3203 3.2678 70.923 8.46817 75.5194C13.9939 80.4037 18.8754 80.6718 18.8754 80.6718Z" fill="#719E73"/>
<path d="M18.2995 67.8562C18.2995 67.8562 18.5012 61.2485 16.7786 56.2294C14.3744 49.2286 7.8093 47.8538 7.69543 47.8818C7.69543 47.8818 6.63161 55.3677 10.4363 61.1942C14.4802 67.3876 18.2995 67.8562 18.2995 67.8562Z" fill="#719E73"/>
<path d="M21.0775 55.4711C21.0775 55.4711 22.3869 49.9241 21.7233 44.6534C20.7229 36.7103 14.61 35.0296 14.4929 35.0411C14.4929 35.0411 12.3977 42.3971 15.3777 48.6956C18.5464 55.3889 21.0759 55.4711 21.0759 55.4711H21.0775Z" fill="#719E73"/>
<path d="M26.4645 42.1733C26.4645 42.1733 28.5938 37.1542 28.3205 31.8489C27.9415 24.4863 23.0079 21.3765 22.8907 21.3716C22.8907 21.3716 18.1328 25.7082 20.8656 35.0442C22.5231 40.708 26.4661 42.1716 26.4661 42.1716L26.4645 42.1733Z" fill="#719E73"/>
<path d="M33.3154 31.2407C33.3154 31.2407 36.4792 26.3137 37.3543 21.0758C38.1758 16.1587 36.2027 10.8008 35.7618 10.3091C35.7618 10.3091 30.6135 12.5966 30.8071 21.3751C30.9372 27.279 33.3154 31.2407 33.3154 31.2407Z" fill="#719E73"/>
<path d="M41.735 20.6908C41.735 20.6908 45.5072 16.6288 46.4897 11.0752C47.303 6.47383 46.4832 1.47281 45.6259 0.224609C45.6259 0.224609 40.7053 3.31633 40.3475 11.1328C40.0774 17.0334 41.3446 19.8406 41.735 20.6925V20.6908Z" fill="#719E73"/>
<path d="M47.8389 14.2211C47.8389 14.2211 55.0286 14.4842 58.6024 12.3858C62.6023 10.0374 66.5274 4.94265 66.8364 3.45435C66.8364 3.45435 60.5397 0.661929 54.6675 5.76162C50.2365 9.60983 48.1837 13.3495 47.8389 14.2195V14.2211Z" fill="#719E73"/>
<path d="M39.9175 22.99C39.9175 22.99 43.3562 18.9198 49.2658 17.8673C53.8204 17.0565 57.3225 17.8048 59.5706 19.1303C59.5706 19.1303 56.1026 23.6231 49.4545 24.2415C43.6376 24.7825 40.7715 23.3551 39.9175 22.99Z" fill="#719E73"/>
<path d="M32.8105 32.3754C32.8105 32.3754 36.085 28.4712 41.9946 27.4187C46.5492 26.608 48.737 27.4401 50.985 28.764C50.985 28.764 48.2148 33.0496 41.5668 33.668C35.7499 34.209 33.6645 32.7404 32.8105 32.3754Z" fill="#719E73"/>
<path d="M25.9126 44.6186C25.9126 44.6186 28.9723 39.8067 34.5029 37.455C40.1701 35.0457 43.0818 36.1953 45.5201 37.1162C44.7426 38.2953 41.5609 43.2092 36.4028 44.6843C30.7811 46.2927 26.817 44.834 25.9126 44.6186Z" fill="#719E73"/>
<path d="M21.8184 55.4926C21.8184 55.4926 24.5283 50.4718 29.88 47.7254C35.3634 44.9116 38.3483 45.849 40.8436 46.5907C40.1522 47.8225 37.3268 52.955 32.2858 54.7986C26.7926 56.8082 22.7342 55.6406 21.8184 55.4926Z" fill="#719E73"/>
<path d="M19.668 68.4154C22.0136 65.3746 23.2889 62.1053 26.8984 58.8524C31.3456 54.8447 35.1601 56.1225 37.7497 56.3807C36.4744 58.8014 34.5615 62.6299 30.6055 65.5161C25.8671 68.9712 20.5952 68.389 19.668 68.4154Z" fill="#719E73"/>
<path d="M19.9609 80.3218C21.9552 77.0344 22.9019 74.4722 26.1292 70.8312C30.1047 66.3449 33.872 67.1425 36.4746 67.1064C35.4759 69.6554 33.7923 73.4707 30.1811 76.7844C25.8559 80.7543 20.88 80.1903 19.9626 80.3218H19.9609Z" fill="#719E73"/>
<path d="M22.5264 89.8156C25.5275 85.132 25.1485 84.0712 28.0862 80.1885C31.2403 76.018 35.2239 76.1314 37.8152 75.8848C37.0214 78.5078 35.8372 82.055 32.4733 85.627C28.8882 89.4357 25.1566 88.9456 22.5264 89.8156Z" fill="#719E73"/>
<path d="M27.4541 99.1186C29.3459 94.9744 29.0189 92.3876 30.7546 89.4504C33.5914 84.6468 36.373 84.4396 38.9642 84.1929C36.8984 90.179 37.3766 90.2053 35.1009 93.8512C32.8871 97.3985 29.8794 97.8754 27.4541 99.1203V99.1186Z" fill="#719E73"/>
<path d="M33.3994 106.942C34.4779 102.51 33.3831 101.153 34.5332 97.9361C36.4152 92.6736 39.1073 91.9368 41.6042 91.1968C41.3163 94.7292 41.7506 96.9707 39.7921 100.799C38.4095 103.503 35.5466 105.256 33.3994 106.943V106.942Z" fill="#719E73"/>
<path d="M45.3786 98.2402C45.3786 98.2402 47.5404 102.46 46.8231 107.353C45.8048 114.283 42.1416 115.322 42.1416 115.322C42.1416 115.322 40.0546 112.171 40.2677 105.78C40.4938 98.9523 45.3786 98.2402 45.3786 98.2402Z" fill="#719E73"/>
<path d="M53.1836 105.3C53.1836 105.3 55.347 109.573 54.8737 114.495C54.267 120.803 50.8494 122.381 50.8494 122.381C50.8494 122.381 48.6973 118.86 48.6046 113.545C48.4647 105.429 53.182 105.299 53.182 105.299L53.1836 105.3Z" fill="#719E73"/>
</svg>
