<svg width="18" height="18" viewBox="0 0 18 18" fill="none" xmlns="http://www.w3.org/2000/svg">
<path d="M9.00016 2.30176C5.30636 2.30176 2.30176 5.30636 2.30176 9.00016C2.30176 12.694 5.30636 15.6986 9.00016 15.6986C12.694 15.6986 15.6986 12.694 15.6986 9.00016C15.6986 5.30636 12.694 2.30176 9.00016 2.30176ZM9.00016 14.819C5.79236 14.819 3.18136 12.2088 3.18136 9.00016C3.18136 5.79236 5.79236 3.18136 9.00016 3.18136C12.208 3.18136 14.819 5.79156 14.819 9.00016C14.819 12.208 12.2088 14.819 9.00016 14.819Z" fill="white" stroke="white" stroke-width="0.5"/>
<path d="M9.48075 8.84116V5.30996C9.48075 5.067 9.28388 4.87012 9.04091 4.87012C8.79795 4.87012 8.60107 5.06699 8.60107 5.30996V8.98956C8.60107 9.08565 8.63311 9.18018 8.6917 9.25596L9.89092 10.8294C9.97764 10.9427 10.1089 11.0028 10.2417 11.0028C10.3347 11.0028 10.4284 10.9731 10.5081 10.9122C10.7018 10.7653 10.7386 10.4888 10.5909 10.295L9.48231 8.83957L9.48075 8.84116Z" fill="white" stroke="white" stroke-width="0.5"/>
</svg>
