<svg width="432" height="109" viewBox="0 0 432 109" fill="none" xmlns="http://www.w3.org/2000/svg">
<g clip-path="url(#clip0_1989_11094)">
<path d="M22.6212 -310.189C38.1132 -296.247 38.1132 -282.304 22.6212 -268.361C7.12912 -254.418 7.12912 -240.475 22.6212 -226.532C38.1132 -212.589 38.1132 -198.647 22.6212 -184.704C7.12912 -170.761 7.12912 -156.818 22.6212 -142.875C38.1132 -128.932 38.1132 -114.989 22.6212 -101.047C7.12911 -87.1038 7.12911 -73.1609 22.6212 -59.2181C38.1132 -45.2752 38.1132 -31.3323 22.6212 -17.3895C7.12911 -3.44664 7.12911 10.4962 22.6212 24.4391C38.1132 38.3819 38.1132 52.3248 22.6212 66.2676C7.12911 80.2105 7.12911 94.1533 22.6212 108.096" stroke="#E3F3FB" stroke-width="5.80952"/>
<path d="M45.8575 -310.189C61.3496 -296.247 61.3496 -282.304 45.8575 -268.361C30.3655 -254.418 30.3654 -240.475 45.8575 -226.532C61.3496 -212.589 61.3496 -198.647 45.8575 -184.704C30.3654 -170.761 30.3654 -156.818 45.8575 -142.875C61.3496 -128.932 61.3496 -114.989 45.8575 -101.047C30.3654 -87.1038 30.3654 -73.1609 45.8575 -59.2181C61.3496 -45.2752 61.3496 -31.3323 45.8575 -17.3895C30.3654 -3.44664 30.3654 10.4962 45.8575 24.4391C61.3496 38.3819 61.3496 52.3248 45.8575 66.2676C30.3654 80.2105 30.3654 94.1533 45.8575 108.096" stroke="#E3F3FB" stroke-width="5.80952"/>
<path d="M69.0958 -310.189C84.5879 -296.247 84.5879 -282.304 69.0958 -268.361C53.6037 -254.418 53.6037 -240.475 69.0958 -226.532C84.5879 -212.589 84.5879 -198.647 69.0958 -184.704C53.6037 -170.761 53.6037 -156.818 69.0958 -142.875C84.5879 -128.932 84.5878 -114.989 69.0958 -101.047C53.6037 -87.1038 53.6037 -73.1609 69.0958 -59.2181C84.5878 -45.2752 84.5878 -31.3323 69.0958 -17.3895C53.6037 -3.44664 53.6037 10.4962 69.0958 24.4391C84.5878 38.3819 84.5878 52.3248 69.0958 66.2676C53.6037 80.2105 53.6037 94.1533 69.0958 108.096" stroke="#E3F3FB" stroke-width="5.80952"/>
<path d="M92.3321 -310.189C107.824 -296.247 107.824 -282.304 92.3321 -268.361C76.8401 -254.418 76.8401 -240.475 92.3321 -226.532C107.824 -212.589 107.824 -198.647 92.3321 -184.704C76.8401 -170.761 76.8401 -156.818 92.3321 -142.875C107.824 -128.932 107.824 -114.989 92.3321 -101.047C76.8401 -87.1038 76.8401 -73.1609 92.3321 -59.2181C107.824 -45.2752 107.824 -31.3323 92.3321 -17.3895C76.84 -3.44664 76.84 10.4962 92.3321 24.4391C107.824 38.3819 107.824 52.3248 92.3321 66.2676C76.84 80.2105 76.84 94.1533 92.3321 108.096" stroke="#E3F3FB" stroke-width="5.80952"/>
<path d="M115.572 -310.189C131.064 -296.247 131.064 -282.304 115.572 -268.361C100.08 -254.418 100.08 -240.475 115.572 -226.532C131.064 -212.589 131.064 -198.647 115.572 -184.704C100.08 -170.761 100.08 -156.818 115.572 -142.875C131.064 -128.932 131.064 -114.989 115.572 -101.047C100.08 -87.1038 100.08 -73.1609 115.572 -59.2181C131.064 -45.2752 131.064 -31.3323 115.572 -17.3895C100.08 -3.44664 100.08 10.4962 115.572 24.4391C131.064 38.3819 131.064 52.3248 115.572 66.2676C100.08 80.2105 100.08 94.1533 115.572 108.096" stroke="#E3F3FB" stroke-width="5.80952"/>
<path d="M138.809 -310.189C154.301 -296.247 154.301 -282.304 138.809 -268.361C123.317 -254.418 123.317 -240.475 138.809 -226.532C154.301 -212.589 154.301 -198.647 138.809 -184.704C123.317 -170.761 123.317 -156.818 138.809 -142.875C154.301 -128.932 154.301 -114.989 138.809 -101.047C123.317 -87.1038 123.317 -73.1609 138.809 -59.2181C154.301 -45.2752 154.301 -31.3323 138.809 -17.3895C123.317 -3.44664 123.317 10.4962 138.809 24.4391C154.301 38.3819 154.301 52.3248 138.809 66.2676C123.317 80.2105 123.317 94.1533 138.809 108.096" stroke="#E3F3FB" stroke-width="5.80952"/>
<path d="M162.047 -310.189C177.539 -296.247 177.539 -282.304 162.047 -268.361C146.555 -254.418 146.555 -240.475 162.047 -226.532C177.539 -212.589 177.539 -198.647 162.047 -184.704C146.555 -170.761 146.555 -156.818 162.047 -142.875C177.539 -128.932 177.539 -114.989 162.047 -101.047C146.555 -87.1038 146.555 -73.1609 162.047 -59.2181C177.539 -45.2752 177.539 -31.3323 162.047 -17.3895C146.555 -3.44664 146.555 10.4962 162.047 24.4391C177.539 38.3819 177.539 52.3248 162.047 66.2676C146.555 80.2105 146.555 94.1533 162.047 108.096" stroke="#E3F3FB" stroke-width="5.80952"/>
<path d="M185.287 -310.189C200.779 -296.247 200.779 -282.304 185.287 -268.361C169.795 -254.418 169.795 -240.475 185.287 -226.532C200.779 -212.589 200.779 -198.647 185.287 -184.704C169.795 -170.761 169.795 -156.818 185.287 -142.875C200.779 -128.932 200.779 -114.989 185.287 -101.047C169.795 -87.1038 169.795 -73.1609 185.287 -59.2181C200.779 -45.2752 200.779 -31.3323 185.287 -17.3895C169.795 -3.44664 169.795 10.4962 185.287 24.4391C200.779 38.3819 200.779 52.3248 185.287 66.2676C169.795 80.2105 169.795 94.1533 185.287 108.096" stroke="#E3F3FB" stroke-width="5.80952"/>
<path d="M208.524 -310.189C224.016 -296.247 224.016 -282.304 208.524 -268.361C193.031 -254.418 193.031 -240.475 208.524 -226.532C224.016 -212.589 224.016 -198.647 208.524 -184.704C193.031 -170.761 193.031 -156.818 208.524 -142.875C224.016 -128.932 224.016 -114.989 208.524 -101.047C193.031 -87.1038 193.031 -73.1609 208.524 -59.2181C224.016 -45.2752 224.016 -31.3323 208.524 -17.3895C193.031 -3.44664 193.031 10.4962 208.524 24.4391C224.016 38.3819 224.016 52.3248 208.524 66.2676C193.031 80.2105 193.031 94.1533 208.524 108.096" stroke="#E3F3FB" stroke-width="5.80952"/>
<path d="M231.764 -310.189C247.256 -296.247 247.256 -282.304 231.764 -268.361C216.272 -254.418 216.272 -240.475 231.764 -226.532C247.256 -212.589 247.256 -198.647 231.764 -184.704C216.272 -170.761 216.272 -156.818 231.764 -142.875C247.256 -128.932 247.256 -114.989 231.764 -101.047C216.272 -87.1038 216.272 -73.1609 231.764 -59.2181C247.256 -45.2752 247.256 -31.3323 231.764 -17.3895C216.272 -3.44664 216.272 10.4962 231.764 24.4391C247.256 38.3819 247.256 52.3248 231.764 66.2676C216.272 80.2105 216.272 94.1533 231.764 108.096" stroke="#E3F3FB" stroke-width="5.80952"/>
<path d="M254.998 -310.189C270.49 -296.247 270.49 -282.304 254.998 -268.361C239.506 -254.418 239.506 -240.475 254.998 -226.532C270.49 -212.589 270.49 -198.647 254.998 -184.704C239.506 -170.761 239.506 -156.818 254.998 -142.875C270.49 -128.932 270.49 -114.989 254.998 -101.047C239.506 -87.1038 239.506 -73.1609 254.998 -59.2181C270.49 -45.2752 270.49 -31.3323 254.998 -17.3895C239.506 -3.44664 239.506 10.4962 254.998 24.4391C270.49 38.3819 270.49 52.3248 254.998 66.2676C239.506 80.2105 239.506 94.1533 254.998 108.096" stroke="#E3F3FB" stroke-width="5.80952"/>
<path d="M278.238 -310.189C293.73 -296.247 293.73 -282.304 278.238 -268.361C262.746 -254.418 262.746 -240.475 278.238 -226.532C293.73 -212.589 293.73 -198.647 278.238 -184.704C262.746 -170.761 262.746 -156.818 278.238 -142.875C293.73 -128.932 293.73 -114.989 278.238 -101.047C262.746 -87.1038 262.746 -73.1609 278.238 -59.2181C293.73 -45.2752 293.73 -31.3323 278.238 -17.3895C262.746 -3.44664 262.746 10.4962 278.238 24.4391C293.73 38.3819 293.73 52.3248 278.238 66.2676C262.746 80.2105 262.746 94.1533 278.238 108.096" stroke="#E3F3FB" stroke-width="5.80952"/>
<path d="M301.475 -310.189C316.967 -296.247 316.967 -282.304 301.475 -268.361C285.983 -254.418 285.983 -240.475 301.475 -226.532C316.967 -212.589 316.967 -198.647 301.475 -184.704C285.983 -170.761 285.983 -156.818 301.475 -142.875C316.967 -128.932 316.967 -114.989 301.475 -101.047C285.983 -87.1038 285.983 -73.1609 301.475 -59.2181C316.967 -45.2752 316.967 -31.3323 301.475 -17.3895C285.983 -3.44664 285.983 10.4962 301.475 24.4391C316.967 38.3819 316.967 52.3248 301.475 66.2676C285.983 80.2105 285.983 94.1533 301.475 108.096" stroke="#E3F3FB" stroke-width="5.80952"/>
<path d="M324.715 -310.189C340.207 -296.247 340.207 -282.304 324.715 -268.361C309.223 -254.418 309.223 -240.475 324.715 -226.532C340.207 -212.589 340.207 -198.647 324.715 -184.704C309.223 -170.761 309.223 -156.818 324.715 -142.875C340.207 -128.932 340.207 -114.989 324.715 -101.047C309.223 -87.1038 309.223 -73.1609 324.715 -59.2181C340.207 -45.2752 340.207 -31.3323 324.715 -17.3895C309.223 -3.44664 309.223 10.4962 324.715 24.4391C340.207 38.3819 340.207 52.3248 324.715 66.2676C309.223 80.2105 309.223 94.1533 324.715 108.096" stroke="#E3F3FB" stroke-width="5.80952"/>
<path d="M347.953 -310.189C363.445 -296.247 363.445 -282.304 347.953 -268.361C332.461 -254.418 332.461 -240.475 347.953 -226.532C363.445 -212.589 363.445 -198.647 347.953 -184.704C332.461 -170.761 332.461 -156.818 347.953 -142.875C363.445 -128.932 363.445 -114.989 347.953 -101.047C332.461 -87.1038 332.461 -73.1609 347.953 -59.2181C363.445 -45.2752 363.445 -31.3323 347.953 -17.3895C332.461 -3.44664 332.461 10.4962 347.953 24.4391C363.445 38.3819 363.445 52.3248 347.953 66.2676C332.461 80.2105 332.461 94.1533 347.953 108.096" stroke="#E3F3FB" stroke-width="5.80952"/>
<path d="M371.19 -310.189C386.682 -296.247 386.682 -282.304 371.19 -268.361C355.697 -254.418 355.697 -240.475 371.19 -226.532C386.682 -212.589 386.682 -198.647 371.19 -184.704C355.697 -170.761 355.697 -156.818 371.19 -142.875C386.682 -128.932 386.682 -114.989 371.19 -101.047C355.697 -87.1038 355.697 -73.1609 371.19 -59.2181C386.682 -45.2752 386.682 -31.3323 371.19 -17.3895C355.697 -3.44664 355.697 10.4962 371.19 24.4391C386.682 38.3819 386.682 52.3248 371.19 66.2676C355.697 80.2105 355.697 94.1533 371.19 108.096" stroke="#E3F3FB" stroke-width="5.80952"/>
<path d="M394.43 -310.189C409.922 -296.247 409.922 -282.304 394.43 -268.361C378.938 -254.418 378.938 -240.475 394.43 -226.532C409.922 -212.589 409.922 -198.647 394.43 -184.704C378.938 -170.761 378.938 -156.818 394.43 -142.875C409.922 -128.932 409.922 -114.989 394.43 -101.047C378.938 -87.1038 378.938 -73.1609 394.43 -59.2181C409.922 -45.2752 409.922 -31.3323 394.43 -17.3895C378.938 -3.44664 378.938 10.4962 394.43 24.4391C409.922 38.3819 409.922 52.3248 394.43 66.2676C378.938 80.2105 378.938 94.1533 394.43 108.096" stroke="#E3F3FB" stroke-width="5.80952"/>
<path d="M417.666 -310.189C433.158 -296.247 433.158 -282.304 417.666 -268.361C402.174 -254.418 402.174 -240.475 417.666 -226.532C433.158 -212.589 433.158 -198.647 417.666 -184.704C402.174 -170.761 402.174 -156.818 417.666 -142.875C433.158 -128.932 433.158 -114.989 417.666 -101.047C402.174 -87.1038 402.174 -73.1609 417.666 -59.2181C433.158 -45.2752 433.158 -31.3323 417.666 -17.3895C402.174 -3.44664 402.174 10.4962 417.666 24.4391C433.158 38.3819 433.158 52.3248 417.666 66.2676C402.174 80.2105 402.174 94.1533 417.666 108.096" stroke="#E3F3FB" stroke-width="5.80952"/>
<path d="M440.904 -310.189C456.396 -296.247 456.396 -282.304 440.904 -268.361C425.412 -254.418 425.412 -240.475 440.904 -226.532C456.396 -212.589 456.396 -198.647 440.904 -184.704C425.412 -170.761 425.412 -156.818 440.904 -142.875C456.396 -128.932 456.396 -114.989 440.904 -101.047C425.412 -87.1038 425.412 -73.1609 440.904 -59.2181C456.396 -45.2752 456.396 -31.3323 440.904 -17.3895C425.412 -3.44664 425.412 10.4962 440.904 24.4391C456.396 38.3819 456.396 52.3248 440.904 66.2676C425.412 80.2105 425.412 94.1533 440.904 108.096" stroke="#E3F3FB" stroke-width="5.80952"/>
</g>
<defs>
<clipPath id="clip0_1989_11094">
<rect width="499" height="108" fill="white" transform="translate(0 0.0878906)"/>
</clipPath>
</defs>
</svg>
